<?xml version="1.0" encoding="utf-8" standalone="no"?>
<!DOCTYPE svg PUBLIC "-//W3C//DTD SVG 1.1//EN"
"http://www.w3.org/Graphics/SVG/1.1/DTD/svg11.dtd">

<svg xmlns="http://www.w3.org/2000/svg" 
  xmlns:xlink="http://www.w3.org/1999/xlink" version="1.1"
  width="500px" height="300px" viewBox="10 0 500 300">
<defs>
	<pattern id="dashed" patternUnits="userSpaceOnUse"
		x="5" y="0" viewBox="0 0 10 10" width="5" height="5" >
		<rect x="0" y="0" width="10" height="6" fill="blue" />
	</pattern>
</defs>
<title>Loaded Truss</title>
<path stroke="black" stroke-width="4" fill="none" stroke-linejoin="round"
  d="M100,10 L150,150 L200,10 L250,150 L300,10 L350,150 L400,10 Z L50,150 H450 L400,10" />
<g stroke="black" stroke-width="1" fill="lightgray">
	<polyline points="25,200 50,150 75,200 25,200" />
	<circle cx="450" cy="175" r="25" />
	<g id="bases">
		<line x1="15" x2="85" y1="200" y2="200" />
		<g id="two">
		<line id="one" x1="15" x2="20" y1="210" y2="200" />
		<use xlink:href="#one" transform="translate(5,0)" />
		<use xlink:href="#one" transform="translate(10,0)" />
		<use xlink:href="#one" transform="translate(15,0)" />
		<use xlink:href="#one" transform="translate(20,0)" />
		<use xlink:href="#one" transform="translate(25,0)" />
		<use xlink:href="#one" transform="translate(30,0)" />
		</g>
		<use xlink:href="#two" transform="translate(35,0)" />
	</g>
	<use xlink:href="#bases" transform="translate(400,0)" />
</g>
<path id="Arrow1" d="M47,300 V230 H42 L50,215 L58,230 H53 V300 Z" fill="red" />
<use xlink:href="#Arrow1" transform="translate(400,0)" />
<path id="Arrow2" d="M250,150 L242,135 H247 V70 H253 V135 H258 Z" fill="blue" />
<use xlink:href="#Arrow2" transform="translate(100,-30) scale(1,1.2)" />
<path d="M330,150 L322,135 H338 Z" fill="blue" />
<rect x="327" y="40" width="6" height="95" fill="url(#dashed)" />
</svg>

